<?xml version="1.0" encoding="utf-8"?><svg viewBox="0 0 510 510" xmlns="http://www.w3.org/2000/svg" xmlns:xlink="http://www.w3.org/1999/xlink"><style>:root>svg{display:none}:root>svg:target{display:block}</style><svg viewBox="0 0 510 510" id="gmail-icon-one" xmlns="http://www.w3.org/2000/svg"><path d="M459 51H51C22.95 51 0 73.95 0 102v306c0 28.05 22.95 51 51 51h408c28.05 0 51-22.95 51-51V102c0-28.05-22.95-51-51-51zm0 357h-51V183.6l-153 96.9-153-96.9V408H51V102h30.6L255 209.1 428.4 102H459v306z"/></svg><svg viewBox="0 0 24 24" id="gmail-icon-two" xmlns="http://www.w3.org/2000/svg"><path d="M20 18h-2V9.25L12 13 6 9.25V18H4V6h1.2l6.8 4.25L18.8 6H20m0-2H4c-1.11 0-2 .89-2 2v12a2 2 0 002 2h16a2 2 0 002-2V6a2 2 0 00-2-2z"/></svg><svg viewBox="0 0 438.536 438.536" id="linkedin-icon-one" xmlns="http://www.w3.org/2000/svg"><path d="M414.41 24.123C398.333 8.042 378.963 0 356.315 0H82.228C59.58 0 40.21 8.042 24.126 24.123 8.045 40.207.003 59.576.003 82.225v274.084c0 22.647 8.042 42.018 24.123 58.102 16.084 16.084 35.454 24.126 58.102 24.126h274.084c22.648 0 42.018-8.042 58.095-24.126 16.084-16.084 24.126-35.454 24.126-58.102V82.225c-.001-22.649-8.043-42.021-24.123-58.102zM133.618 367.157H67.666V169.016h65.952v198.141zm-5.992-234.825c-6.851 6.567-15.893 9.851-27.124 9.851h-.288c-10.848 0-19.648-3.284-26.407-9.851-6.76-6.567-10.138-14.703-10.138-24.41 0-9.897 3.476-18.083 10.421-24.556 6.95-6.471 15.942-9.708 26.98-9.708 11.039 0 19.89 3.237 26.553 9.708 6.661 6.473 10.088 14.659 10.277 24.556-.001 9.703-3.423 17.839-10.274 24.41zm243.247 234.825h-65.952v-105.92c0-29.879-11.036-44.823-33.116-44.823-8.374 0-15.42 2.331-21.128 6.995-5.715 4.661-9.996 10.324-12.847 16.991-1.335 3.422-1.999 8.75-1.999 15.981v110.775h-65.952c.571-119.529.571-185.579 0-198.142h65.952v27.974c13.867-21.681 33.558-32.544 59.101-32.544 22.84 0 41.21 7.52 55.104 22.554 13.895 15.037 20.841 37.214 20.841 66.519v113.64h-.004z"/></svg><svg viewBox="0 0 17 17" id="linkedin-icon-three" xmlns="http://www.w3.org/2000/svg"><path d="M14.014.965H2.518A2.252 2.252 0 00.266 3.217v11.496a2.252 2.252 0 002.252 2.252h11.496a2.252 2.252 0 002.252-2.252V3.217A2.252 2.252 0 0014.014.965zM5.6 13.75c0 .04-.027.1-.08.181-.08.054-.14.08-.18.08H3.49c-.04 0-.1-.026-.18-.08-.055-.08-.082-.14-.082-.18V7.254c0-.04.027-.1.08-.18.08-.054.14-.08.181-.08h1.85c.04 0 .1.026.18.08.054.08.081.14.081.18v6.494zm-.3-7.86a1.204 1.204 0 01-.886.361c-.349 0-.643-.12-.885-.362a1.203 1.203 0 01-.362-.885c0-.335.121-.623.362-.864a1.216 1.216 0 011.77 0c.24.24.361.53.361.864 0 .35-.12.644-.36.885zm8.161 7.86a.249.249 0 01-.08.181.251.251 0 01-.18.08h-1.89c-.04 0-.1-.026-.18-.08-.055-.08-.082-.14-.082-.18V9.79c0-.337-.06-.598-.18-.786-.149-.16-.39-.24-.725-.24-.429 0-.737.126-.925.381-.174.255-.26.617-.26 1.086v3.518a.25.25 0 01-.08.181.25.25 0 01-.183.08h-1.85c-.04 0-.1-.026-.18-.08-.054-.08-.08-.14-.08-.18V7.254c0-.04.026-.1.08-.18.08-.054.14-.08.18-.08h1.79c.054 0 .107.012.16.04.028.013.055.06.081.14v.1l.02.04v.161c.443-.428 1.053-.643 1.83-.643.871 0 1.541.208 2.01.623.483.442.724 1.08.724 1.91v4.383z"/></svg><svg viewBox="0 0 24 24" id="linkedin-icon-two" xmlns="http://www.w3.org/2000/svg"><path d="M19 3a2 2 0 012 2v14a2 2 0 01-2 2H5a2 2 0 01-2-2V5a2 2 0 012-2h14m-.5 15.5v-5.3a3.26 3.26 0 00-3.26-3.26c-.85 0-1.84.52-2.32 1.3v-1.11h-2.79v8.37h2.79v-4.93c0-.77.62-1.4 1.39-1.4a1.4 1.4 0 011.4 1.4v4.93h2.79M6.88 8.56a1.68 1.68 0 001.68-1.68c0-.93-.75-1.69-1.68-1.69a1.69 1.69 0 00-1.69 1.69c0 .93.76 1.68 1.69 1.68m1.39 9.94v-8.37H5.5v8.37h2.77z"/></svg><svg viewBox="0 0 448 512" id="phone-icon" xmlns="http://www.w3.org/2000/svg"><!--! Font Awesome Pro 6.2.0 by @fontawesome - https://fontawesome.com License - https://fontawesome.com/license (Commercial License) Copyright 2022 Fonticons, Inc.--><path d="M64 32C28.7 32 0 60.7 0 96v320c0 35.3 28.7 64 64 64h320c35.3 0 64-28.7 64-64V96c0-35.3-28.7-64-64-64H64zm90.7 96.7c9.7-2.6 19.9 2.3 23.7 11.6l20 48c3.4 8.2 1 17.6-5.8 23.2L168 231.7c16.6 35.2 45.1 63.7 80.3 80.3l20.2-24.7c5.6-6.8 15-9.2 23.2-5.8l48 20c9.3 3.9 14.2 14 11.6 23.7l-12 44C336.9 378 329 384 320 384 196.3 384 96 283.7 96 160c0-9 6-16.9 14.7-19.3l44-12z"/></svg><svg viewBox="0 0 0 0" id="sprite" xmlns="http://www.w3.org/2000/svg"/><svg viewBox="0 0 32 32" id="telegram-icon" xmlns="http://www.w3.org/2000/svg"><path d="M16 .5C7.437.5.5 7.438.5 16S7.438 31.5 16 31.5c8.563 0 15.5-6.938 15.5-15.5S24.562.5 16 .5zm7.613 10.619l-2.544 11.988c-.188.85-.694 1.056-1.4.656l-3.875-2.856-1.869 1.8c-.206.206-.381.381-.781.381l.275-3.944 7.181-6.488c.313-.275-.069-.431-.482-.156l-8.875 5.587-3.825-1.194c-.831-.262-.85-.831.175-1.231l14.944-5.763c.694-.25 1.3.169 1.075 1.219z"/></svg></svg>